<?xml version="1.0" encoding="utf-8"?>
<!DOCTYPE svg PUBLIC "-//W3C//DTD SVG 1.0//EN"    "http://www.w3.org/TR/2001/REC-SVG-20010904/DTD/svg10.dtd" [
	<!ENTITY ns_flows "http://ns.adobe.com/Flows/1.0/">
	<!ENTITY ns_extend "http://ns.adobe.com/Extensibility/1.0/">
	<!ENTITY ns_ai "http://ns.adobe.com/AdobeIllustrator/10.0/">
	<!ENTITY ns_graphs "http://ns.adobe.com/Graphs/1.0/">
	<!ENTITY ns_vars "http://ns.adobe.com/Variables/1.0/">
	<!ENTITY ns_imrep "http://ns.adobe.com/ImageReplacement/1.0/">
	<!ENTITY ns_sfw "http://ns.adobe.com/SaveForWeb/1.0/">
	<!ENTITY ns_custom "http://ns.adobe.com/GenericCustomNamespace/1.0/">
	<!ENTITY ns_adobe_xpath "http://ns.adobe.com/XPath/1.0/">
	<!ENTITY ns_svg "http://www.w3.org/2000/svg">
	<!ENTITY ns_xlink "http://www.w3.org/1999/xlink">
]>
<svg xmlns:cc="http://creativecommons.org/ns#" xmlns:dc="http://purl.org/dc/elements/1.1/" xmlns:inkscape="http://www.inkscape.org/namespaces/inkscape" xmlns:rdf="http://www.w3.org/1999/02/22-rdf-syntax-ns#" xmlns:sodipodi="http://sodipodi.sourceforge.net/DTD/sodipodi-0.dtd"
	 xmlns:x="&ns_extend;" xmlns:i="&ns_ai;" xmlns:graph="&ns_graphs;" i:viewOrigin="39.9478 500.0767" i:rulerOrigin="0 0" i:pageBounds="0 504 576 0"
	 xmlns="&ns_svg;" xmlns:xlink="&ns_xlink;" xmlns:a="http://ns.adobe.com/AdobeSVGViewerExtensions/3.0/"
	 width="497.124" height="497.131" viewBox="0 0 497.124 497.131" overflow="visible" enable-background="new 0 0 497.124 497.131"
	 xml:space="preserve">

	<style>
		svg {
			background-color: #00000000;
		}

		polygon, path {
			fill: #555555FF;
		}
	</style>

	<g id="Layer_2_1_">
		<polygon points="269.458,168.295 254.677,157.561 381.412,65.483 307.271,293.624 289.005,293.624
			348.333,110.983 "/>
		<polygon points="331.136,243.449 336.777,226.074 463.512,318.152 223.626,318.139 217.982,300.768
			410.017,300.752 "/>
		<polygon points="278.699,325.342 296.966,325.338 248.558,474.325 174.442,246.175 189.219,235.439
			248.576,418.071 "/>
		<polygon points="184.583,300.792 190.233,318.165 33.579,318.165 227.66,177.174 242.436,187.911
			87.085,300.798 "/>
		<polygon points="178.868,203.711 164.091,214.453 115.683,65.465 309.747,206.479 304.102,223.849
			148.733,110.987 "/>
		<g>
			<g>
				<path d="M255.626,476.183l-7.085,20.94c0.007,0,0.014,0,0.021,0c110.536,0,204.203-72.161,236.507-171.939
					l-22.061,0.276C432.218,411.301,351.356,473.278,255.626,476.183z M248.563,0c-54.555,0-104.994,17.589-145.985,47.387
					l18.048,12.771c36.473-24.821,80.524-39.335,127.968-39.335c47.432,0,91.473,14.507,127.94,39.317l17.995-12.744
					l-6.554,21.064c53.75,41.659,88.357,106.835,88.357,180.102c0,22.009-3.132,43.283-8.957,63.415l17.699,13.189
					c7.811-24.132,12.048-49.871,12.048-76.604C497.124,111.285,385.838,0,248.563,0z M20.853,248.561
					c0-73.23,34.572-138.379,88.277-180.04l-6.579-21.115C40.41,92.59,0,165.851,0,248.561c0,26.727,4.235,52.461,12.042,76.588
					l17.749-13.237C23.978,291.799,20.853,270.546,20.853,248.561z M34.177,325.459l-22.121-0.269
					c32.303,99.767,125.957,171.92,236.479,171.933l-7.096-20.945C145.761,473.224,64.954,411.264,34.177,325.459z"/>
			</g>
		</g>
	</g>

</svg>
